<svg width="17" height="17" viewBox="0 0 17 17" fill="none" xmlns="http://www.w3.org/2000/svg">
    <path d="M8.5 0C11.434 0 13.8125 2.37847 13.8125 5.3125C13.8125 8.24653 11.434 10.625 8.5 10.625C5.56597 10.625 3.1875 8.24653 3.1875 5.3125C3.1875 2.37847 5.56597 0 8.5 0ZM14.5856 11.0839L12.2178 10.492C9.73008 12.2813 6.71473 11.882 4.78225 10.492L2.41443 11.0839C0.995463 11.4386 0 12.7136 0 14.1762V15.4062C0 16.2865 0.713535 17 1.59375 17H15.4062C16.2865 17 17 16.2865 17 15.4062V14.1762C17 12.7136 16.0045 11.4386 14.5856 11.0839Z" fill="white"/>
</svg>
