<svg width="322" height="87" viewBox="0 0 322 87" fill="none" xmlns="http://www.w3.org/2000/svg">
    <g>
        <path d="M32.4161 65.25C50.319 65.25 64.8322 50.6433 64.8322 32.625C64.8322 14.6067 50.319 0 32.4161 0C14.5132 0 0 14.6067 0 32.625C0 50.6433 14.5132 65.25 32.4161 65.25Z" fill="#FF7700"/>
        <path d="M32.4161 87C50.319 87 64.8322 72.3933 64.8322 54.375C64.8322 36.3567 50.319 21.75 32.4161 21.75C14.5132 21.75 0 36.3567 0 54.375C0 72.3933 14.5132 87 32.4161 87Z" fill="#00C7D9"/>
        <path d="M32.4161 65.25C49.2998 65.25 62.9867 55.5122 62.9867 43.5C62.9867 31.4878 49.2998 21.75 32.4161 21.75C15.5325 21.75 1.84558 31.4878 1.84558 43.5C1.84558 55.5122 15.5325 65.25 32.4161 65.25Z" fill="#9500FF"/>
        <path d="M32.4161 54.375C38.3837 54.375 43.2215 49.5061 43.2215 43.5C43.2215 37.4939 38.3837 32.625 32.4161 32.625C26.4484 32.625 21.6107 37.4939 21.6107 43.5C21.6107 49.5061 26.4484 54.375 32.4161 54.375Z" fill="white"/>
        <path d="M146.953 41.325V62.205C146.953 62.4357 147.044 62.657 147.206 62.8201C147.368 62.9833 147.588 63.075 147.817 63.075H154.733C154.962 63.075 155.182 62.9833 155.344 62.8201C155.506 62.657 155.597 62.4357 155.597 62.205V41.325C155.597 39.1551 156.402 37.0634 157.855 35.4603C159.308 33.8571 161.304 32.8583 163.451 32.6598C163.667 32.6412 163.868 32.5414 164.015 32.3802C164.162 32.219 164.242 32.0082 164.242 31.7898V24.8298C164.242 24.711 164.218 24.5934 164.171 24.4843C164.125 24.3752 164.056 24.2769 163.97 24.1954C163.885 24.1138 163.783 24.0509 163.672 24.0104C163.561 23.9699 163.443 23.9526 163.325 23.9598C158.907 24.1958 154.746 26.1279 151.701 29.3584C148.655 32.5888 146.956 36.8716 146.953 41.325Z" fill="white"/>
        <path d="M113.78 23.925C110.908 23.8462 108.105 24.8201 105.893 26.6655C103.68 24.8201 100.877 23.8462 98.0046 23.925C91.5214 24.099 86.4429 29.6148 86.4429 36.1398V62.205C86.4429 62.4357 86.5339 62.657 86.6961 62.8202C86.8582 62.9833 87.078 63.075 87.3073 63.075H94.2227C94.452 63.075 94.6719 62.9833 94.834 62.8202C94.9961 62.657 95.0872 62.4357 95.0872 62.205V36.0006C95.0758 35.1946 95.3543 34.4116 95.8714 33.796C96.3885 33.1805 97.1093 32.7738 97.9009 32.6511C98.3588 32.5904 98.8242 32.6288 99.2662 32.7637C99.7082 32.8985 100.116 33.1267 100.464 33.4331C100.811 33.7394 101.089 34.1168 101.28 34.5401C101.471 34.9633 101.57 35.4227 101.57 35.8875V62.205C101.57 62.4357 101.661 62.657 101.824 62.8202C101.986 62.9833 102.206 63.075 102.435 63.075H109.35C109.58 63.075 109.799 62.9833 109.962 62.8202C110.124 62.657 110.215 62.4357 110.215 62.205V36.0006C110.203 35.1946 110.482 34.4116 110.999 33.796C111.516 33.1805 112.237 32.7738 113.028 32.6511C113.486 32.5904 113.952 32.6288 114.394 32.7637C114.836 32.8985 115.244 33.1267 115.591 33.4331C115.939 33.7394 116.217 34.1168 116.408 34.5401C116.599 34.9633 116.698 35.4227 116.698 35.8875V62.205C116.698 62.4357 116.789 62.657 116.951 62.8202C117.113 62.9833 117.333 63.075 117.562 63.075H124.478C124.707 63.075 124.927 62.9833 125.089 62.8202C125.251 62.657 125.342 62.4357 125.342 62.205V36.1441C125.342 29.6191 120.259 24.1033 113.78 23.925Z" fill="white"/>
        <path d="M139.605 23.925H132.69C132.213 23.925 131.826 24.3145 131.826 24.795V62.205C131.826 62.6855 132.213 63.075 132.69 63.075H139.605C140.083 63.075 140.47 62.6855 140.47 62.205V24.795C140.47 24.3145 140.083 23.925 139.605 23.925Z" fill="white"/>
        <path d="M260.626 10.875H253.71C253.233 10.875 252.846 11.2645 252.846 11.745V62.205C252.846 62.6855 253.233 63.075 253.71 63.075H260.626C261.103 63.075 261.49 62.6855 261.49 62.205V11.745C261.49 11.2645 261.103 10.875 260.626 10.875Z" fill="white"/>
        <path d="M196.658 27.231C193.73 25.2591 190.324 24.1247 186.805 23.949C183.287 23.7733 179.786 24.5629 176.679 26.2334C173.571 27.9039 170.973 30.3926 169.161 33.4337C167.349 36.4748 166.392 39.9541 166.392 43.5C166.392 47.0459 167.349 50.5252 169.161 53.5663C170.973 56.6074 173.571 59.0961 176.679 60.7666C179.786 62.4371 183.287 63.2266 186.805 63.0509C190.324 62.8752 193.73 61.7409 196.658 59.769V62.205C196.658 62.4357 196.749 62.657 196.911 62.8202C197.073 62.9833 197.293 63.075 197.522 63.075H204.438C204.667 63.075 204.887 62.9833 205.049 62.8202C205.211 62.657 205.302 62.4357 205.302 62.205V24.795C205.302 24.5643 205.211 24.343 205.049 24.1798C204.887 24.0167 204.667 23.925 204.438 23.925H197.522C197.293 23.925 197.073 24.0167 196.911 24.1798C196.749 24.343 196.658 24.5643 196.658 24.795V27.231ZM186.717 54.3402C184.513 54.5182 182.308 54.0115 180.399 52.8886C178.491 51.7657 176.97 50.0806 176.043 48.0606C175.116 46.0406 174.827 43.783 175.215 41.5924C175.602 39.4018 176.649 37.3836 178.212 35.8103C179.775 34.2369 181.78 33.184 183.957 32.7937C186.134 32.4033 188.377 32.6944 190.384 33.6275C192.391 34.5606 194.065 36.0909 195.181 38.0119C196.297 39.9328 196.8 42.152 196.623 44.37C196.418 46.9453 195.308 49.3629 193.493 51.1898C191.678 53.0167 189.276 54.1335 186.717 54.3402Z" fill="white"/>
        <path d="M227.73 32.7076C229.873 32.4354 232.048 32.8158 233.974 33.7998C235.9 34.7838 237.489 36.3261 238.535 38.2278C238.683 38.5019 238.901 38.7317 239.166 38.8936C239.431 39.0556 239.734 39.1441 240.044 39.15H246.916C247.049 39.1498 247.181 39.1184 247.301 39.0582C247.421 38.9981 247.525 38.9108 247.605 38.8033C247.686 38.6958 247.74 38.571 247.764 38.4387C247.789 38.3063 247.782 38.1701 247.746 38.0407C246.439 33.5142 243.553 29.6142 239.618 27.0573C235.684 24.5004 230.965 23.4583 226.328 24.1225C221.691 24.7867 217.448 27.1125 214.378 30.6727C211.309 34.233 209.619 38.7884 209.619 43.5022C209.619 48.2159 211.309 52.7714 214.378 56.3316C217.448 59.8918 221.691 62.2177 226.328 62.8819C230.965 63.5461 235.684 62.504 239.618 59.9471C243.553 57.3902 246.439 53.4902 247.746 48.9636C247.783 48.8336 247.79 48.6965 247.766 48.5633C247.742 48.4301 247.687 48.3044 247.606 48.1963C247.525 48.0881 247.42 48.0005 247.299 47.9404C247.179 47.8803 247.046 47.8493 246.911 47.85H240.044C239.73 47.8537 239.424 47.9416 239.155 48.1045C238.887 48.2673 238.667 48.4994 238.518 48.7765C237.621 50.4013 236.326 51.7676 234.755 52.7452C233.185 53.7228 231.392 54.279 229.547 54.3608C227.702 54.4425 225.867 54.047 224.217 53.2121C222.568 52.3772 221.158 51.1307 220.123 49.5915C219.088 48.0524 218.462 46.2719 218.305 44.4201C218.148 42.5684 218.466 40.707 219.227 39.0137C219.988 37.3204 221.168 35.8517 222.653 34.7478C224.139 33.6438 225.88 32.9414 227.712 32.7076H227.73Z" fill="white"/>
        <path d="M310.114 39.1499C309.524 39.15 308.944 38.9877 308.439 38.6805C307.933 38.3734 307.52 37.933 307.245 37.407C306.97 36.881 306.843 36.2894 306.878 35.696C306.912 35.1027 307.107 34.5301 307.442 34.0401C307.776 33.5502 308.237 33.1615 308.775 32.9161C309.313 32.6706 309.907 32.5777 310.494 32.6474C311.08 32.7171 311.637 32.9468 312.103 33.3116C312.569 33.6764 312.928 34.1624 313.14 34.7173C313.261 35.0566 313.483 35.3505 313.775 35.5596C314.067 35.7687 314.415 35.8831 314.773 35.8874H321.097C321.216 35.8878 321.334 35.8633 321.443 35.8156C321.553 35.7678 321.651 35.6978 321.732 35.61C321.813 35.5222 321.875 35.4184 321.915 35.3052C321.954 35.192 321.97 35.0718 321.961 34.9522C321.781 32.6366 320.934 30.424 319.525 28.5844C318.116 26.7448 316.206 25.3579 314.027 24.5928C311.848 23.8277 309.495 23.7176 307.254 24.276C305.014 24.8343 302.984 26.0369 301.412 27.7371C299.839 29.4372 298.793 31.5612 298.399 33.8499C298.006 36.1387 298.284 38.4931 299.198 40.6258C300.112 42.7586 301.623 44.5773 303.547 45.8602C305.471 47.143 307.724 47.8344 310.032 47.8499C310.818 47.8438 311.58 48.1192 312.183 48.6268C312.785 49.1345 313.189 49.8413 313.321 50.6209C313.444 51.4206 313.268 52.2379 312.826 52.9141C312.384 53.5902 311.709 54.077 310.93 54.2797C310.152 54.4825 309.326 54.3869 308.614 54.0114C307.901 53.6359 307.353 53.0073 307.076 52.2478C306.963 51.9215 306.755 51.6378 306.477 51.4348C306.2 51.2317 305.867 51.1192 305.524 51.1124H299.132C299.012 51.1121 298.894 51.1366 298.785 51.1843C298.676 51.2321 298.577 51.302 298.496 51.3899C298.415 51.4777 298.353 51.5815 298.313 51.6947C298.274 51.8079 298.258 51.9281 298.267 52.0477C298.448 54.3668 299.296 56.5825 300.709 58.4237C302.122 60.2649 304.037 61.6516 306.221 62.4141C308.404 63.1766 310.761 63.2817 313.004 62.7167C315.246 62.1517 317.275 60.941 318.844 59.2329C320.413 57.5247 321.454 55.3933 321.837 53.0994C322.221 50.8055 321.932 48.4487 321.006 46.3175C320.079 44.1863 318.556 42.3733 316.621 41.1002C314.687 39.8272 312.425 39.1494 310.114 39.1499Z" fill="white"/>
        <path d="M136.148 19.575C138.535 19.575 140.47 17.6274 140.47 15.225C140.47 12.8226 138.535 10.875 136.148 10.875C133.761 10.875 131.826 12.8226 131.826 15.225C131.826 17.6274 133.761 19.575 136.148 19.575Z" fill="white"/>
        <path d="M280.546 23.925C273.493 24.1425 267.973 30.1499 267.973 37.2534V49.751C267.973 56.9285 273.618 62.9706 280.754 63.075C283.862 63.1153 286.881 62.0306 289.26 60.0185C291.64 58.0065 293.223 55.201 293.72 52.113C293.739 51.9883 293.731 51.861 293.696 51.7399C293.661 51.6188 293.6 51.5068 293.518 51.4116C293.436 51.3164 293.334 51.2404 293.219 51.1887C293.105 51.1371 292.981 51.1111 292.856 51.1125H286.277C285.959 51.1185 285.648 51.2115 285.377 51.3816C285.107 51.5516 284.888 51.7924 284.743 52.0782C284.346 52.8249 283.741 53.4387 283.003 53.8444C282.264 54.2501 281.424 54.43 280.585 54.362C279.488 54.2501 278.473 53.7291 277.738 52.9015C277.004 52.0739 276.604 50.9996 276.617 49.8902V46.7625H293.042C293.271 46.7625 293.491 46.6709 293.653 46.5077C293.815 46.3445 293.906 46.1233 293.906 45.8925V36.975C293.907 35.2274 293.559 33.4975 292.883 31.8878C292.207 30.2782 291.216 28.8216 289.97 27.6044C288.724 26.3873 287.248 25.4345 285.629 24.8024C284.01 24.1704 282.282 23.872 280.546 23.925ZM276.617 40.2375V37.1273C276.601 36.0038 277.007 34.9156 277.754 34.0807C278.501 33.2458 279.534 32.7258 280.646 32.625C281.237 32.5844 281.831 32.6669 282.39 32.8672C282.949 33.0676 283.461 33.3815 283.894 33.7896C284.327 34.1977 284.672 34.691 284.907 35.2391C285.142 35.7871 285.263 36.378 285.262 36.975V40.2375H276.617Z" fill="white"/>
        <path d="M319.839 19.575C320.339 19.5789 320.821 19.757 321.205 20.0788C321.589 20.4006 321.85 20.8464 321.945 21.3402C322.039 21.8341 321.96 22.3455 321.721 22.7875C321.483 23.2294 321.1 23.5746 320.637 23.7643C320.175 23.954 319.661 23.9764 319.184 23.8278C318.706 23.6792 318.295 23.3688 318.019 22.9493C317.744 22.5298 317.621 22.0272 317.672 21.527C317.724 21.0268 317.945 20.5599 318.3 20.2058C318.501 20.0009 318.74 19.8392 319.005 19.7308C319.27 19.6223 319.553 19.5693 319.839 19.575ZM318.646 22.9419C318.801 23.1008 318.987 23.2263 319.192 23.3108C319.397 23.3952 319.617 23.437 319.839 23.4335C320.169 23.4308 320.491 23.3303 320.765 23.1445C321.039 22.9586 321.253 22.6957 321.379 22.3885C321.505 22.0813 321.539 21.7435 321.476 21.4172C321.412 21.0909 321.255 20.7906 321.023 20.5538C320.704 20.2416 320.277 20.0669 319.832 20.0669C319.388 20.0669 318.96 20.2416 318.642 20.5538C318.328 20.8709 318.152 21.3003 318.152 21.7479C318.152 22.1954 318.328 22.6248 318.642 22.9419H318.646ZM320.747 21.3803C320.756 21.5172 320.723 21.6538 320.651 21.7703C320.578 21.8868 320.471 21.9772 320.345 22.0284L320.807 22.8201H320.297L319.865 22.0937H319.545V22.8201H319.048V20.6234H319.982C320.081 20.6208 320.18 20.6387 320.272 20.6762C320.364 20.7136 320.448 20.7696 320.517 20.8409C320.593 20.9089 320.653 20.9921 320.694 21.085C320.735 21.178 320.756 21.2786 320.755 21.3803H320.747ZM319.562 21.0801V21.65H319.956C319.997 21.653 320.039 21.6476 320.078 21.6342C320.117 21.6207 320.154 21.5995 320.185 21.5717C320.212 21.5465 320.234 21.5156 320.248 21.4809C320.262 21.4463 320.269 21.409 320.267 21.3716C320.269 21.3329 320.263 21.2942 320.248 21.2582C320.234 21.2221 320.212 21.1896 320.185 21.1628C320.154 21.1342 320.118 21.1122 320.078 21.098C320.039 21.0838 319.997 21.0777 319.956 21.0801H319.562Z" fill="white"/>
    </g>
    <defs>
        <clipPath id="clip0">
            <rect width="322" height="87" fill="white"/>
        </clipPath>
    </defs>
</svg>
